<svg width="123" height="112" viewBox="0 0 123 112" fill="none" xmlns="http://www.w3.org/2000/svg">
<g clip-path="url(#clip0_207_2)">
<path d="M23.59 0H99.29C105.539 0.0237062 111.526 2.51669 115.944 6.93554C120.363 11.3544 122.856 17.3408 122.88 23.59V87.75C122.886 93.9957 120.411 99.9881 116 104.41L115.78 104.61C111.39 108.915 105.489 111.331 99.34 111.34H23.59C20.4937 111.338 17.4282 110.725 14.5693 109.535C11.7105 108.346 9.11441 106.604 6.93 104.41L6.73 104.19C2.41842 99.804 0.00163523 93.9003 0 87.75L0 23.59C0.0184662 17.3392 2.50976 11.3497 6.92975 6.92975C11.3497 2.50976 17.3392 0.0184662 23.59 0ZM54 47.73L79.25 65.36C79.7756 65.6947 80.2105 66.1539 80.5164 66.6968C80.8222 67.2397 80.9894 67.8496 81.0032 68.4726C81.0171 69.0956 80.8771 69.7123 80.5957 70.2683C80.3143 70.8243 79.9002 71.3023 79.39 71.66L54.22 89.05C53.5464 89.6118 52.6971 89.9196 51.82 89.92C51.3198 89.924 50.8237 89.8289 50.3604 89.6402C49.8971 89.4515 49.4758 89.1729 49.1207 88.8206C48.7655 88.4683 48.4837 88.0491 48.2913 87.5873C48.099 87.1255 48 86.6302 48 86.13V50.82C47.9906 50.119 48.1769 49.4292 48.5379 48.8283C48.8989 48.2273 49.4203 47.7388 50.0436 47.4178C50.6668 47.0969 51.3673 46.956 52.0662 47.0112C52.7651 47.0663 53.4348 47.3152 54 47.73ZM7.35 26.47H21.35L30.41 7.35H23.59C19.2869 7.36319 15.1639 9.07842 12.1212 12.1212C9.07842 15.1639 7.36319 19.2869 7.35 23.59V26.47ZM37.05 7.35L28 26.47H53.36L62.43 7.38L37.05 7.35ZM69.05 7.35L59.92 26.47H84.62L93.7 7.35H69.05ZM100.37 7.35L91.26 26.47H115.53V23.59C115.512 19.4679 113.935 15.5054 111.115 12.4984C108.295 9.49144 104.442 7.66285 100.33 7.38L100.37 7.35ZM115.57 34.03H7.35V87.75C7.36662 91.979 9.0353 96.0341 12 99.05L12.17 99.21C15.1915 102.257 19.299 103.98 23.59 104H99.29C103.512 103.997 107.566 102.346 110.59 99.4L110.75 99.22C112.263 97.719 113.464 95.9338 114.284 93.9671C115.104 92.0004 115.528 89.8909 115.53 87.76V34.06L115.57 34.03Z" fill="#80E614"/>
</g>
<defs>
<clipPath id="clip0_207_2">
<rect width="122.88" height="111.34" fill="white"/>
</clipPath>
</defs>
</svg>
