<svg width="123" height="122" viewBox="0 0 123 122" fill="none" xmlns="http://www.w3.org/2000/svg">
<g clip-path="url(#clip0_207_4)">
<path fill-rule="evenodd" clip-rule="evenodd" d="M102.42 37H81.9199C80.7583 37.0453 79.5997 36.8524 78.5154 36.4332C77.4311 36.0139 76.4441 35.3773 75.6151 34.5623C74.786 33.7473 74.1326 32.7713 73.6949 31.6944C73.2572 30.6174 73.0445 29.4622 73.0699 28.3V7.53H20.9999C20.9231 7.53134 20.8473 7.54794 20.7769 7.57884C20.7065 7.60974 20.6429 7.65432 20.5899 7.71C20.5252 7.75756 20.4743 7.82159 20.4427 7.89545C20.411 7.96931 20.3997 8.0503 20.4099 8.13V113.71C20.4234 113.863 20.4867 114.007 20.5899 114.12C20.6401 114.179 20.7031 114.226 20.7741 114.257C20.8452 114.289 20.9224 114.303 20.9999 114.3H101.84C102.02 114.3 102.01 114.21 102.1 114.12C102.19 114.03 102.44 113.84 102.44 113.71V37H102.42ZM109.89 116.08C109.887 117.607 109.28 119.07 108.2 120.15C107.12 121.23 105.657 121.837 104.13 121.84H18.6599C17.1331 121.837 15.6696 121.23 14.5899 120.15C13.5103 119.07 12.9026 117.607 12.8999 116.08V5.76C12.8974 5.00339 13.0455 4.25384 13.3357 3.55507C13.6258 2.8563 14.0522 2.22228 14.5899 1.69C15.6696 0.610361 17.1331 0.00265171 18.6599 0L76.8999 0C77.7857 0.00838277 78.6463 0.295264 79.3599 0.82L109.11 30.94C109.47 31.2574 109.733 31.6691 109.871 32.1286C110.009 32.5881 110.016 33.077 109.89 33.54V116.07V116.08ZM79.9999 27.69L79.5699 9.63L100.66 31L82.5199 30.19C82.1862 30.207 81.8526 30.1542 81.5405 30.0348C81.2284 29.9155 80.9447 29.7323 80.7074 29.4969C80.4702 29.2616 80.2847 28.9793 80.1629 28.6682C80.0411 28.357 79.9856 28.0238 79.9999 27.69Z" fill="#80E614"/>
<path fill-rule="evenodd" clip-rule="evenodd" d="M6.71 46.28H116.17C117.95 46.2853 119.655 46.9953 120.912 48.2547C122.17 49.5141 122.877 51.2203 122.88 53V98.1C122.875 99.878 122.166 101.582 120.909 102.839C119.652 104.096 117.948 104.805 116.17 104.81H6.71C4.93029 104.805 3.22513 104.095 1.96762 102.835C0.71011 101.576 0.0026366 99.8697 0 98.09L0 53C0.00527594 51.2221 0.713915 49.5184 1.97114 48.2612C3.22837 47.0039 4.93202 46.2953 6.71 46.29V46.28Z" fill="#80E614"/>
<path d="M22.6302 59.78H50.1402V66.08L32.4702 84.52H50.8102V91.3H20.9102V84.76L38.4002 66.51H22.6302V59.78ZM57.0402 59.78H66.8102V91.3H57.0002V59.78H57.0402ZM75.2002 59.78H91.4002C94.9302 59.78 97.5701 60.61 99.3401 62.29C101.11 63.97 102 66.37 102 69.47C102.079 70.8483 101.862 72.2275 101.366 73.5157C100.869 74.8038 100.104 75.9712 99.1202 76.94C97.2102 78.74 94.2802 79.63 90.3502 79.63H85.0002V91.3H75.2002V59.78ZM85.0002 73.25H87.4002C88.8084 73.3812 90.2193 73.0284 91.4002 72.25C91.7669 71.9445 92.0599 71.5601 92.2573 71.1254C92.4547 70.6908 92.5514 70.2172 92.5402 69.74C92.5489 69.2747 92.465 68.8122 92.2933 68.3796C92.1216 67.947 91.8656 67.5528 91.5402 67.22C90.8802 66.53 89.6302 66.22 87.7902 66.22H85.0002V73.22V73.25Z" fill="#222222"/>
</g>
<defs>
<clipPath id="clip0_207_4">
<rect width="122.88" height="121.83" fill="white"/>
</clipPath>
</defs>
</svg>
